
<svg width="100%" height="100%" viewBox="0 0 1000 1000" xmlns="http://www.w3.org/2000/svg" preserveAspectRatio="none" overflow="auto" shape-rendering="auto" fill="#ffffff">
  <defs>
   <path id="wavepath" d="M 0 2000 0 500 Q 17 457 34 500 t 34 0 34 0 34 0 34 0 34 0 34 0 34 0 34 0 34 0 34 0 34 0 34 0 34 0 34 0 34 0 34 0 34 0 34 0 34 0 34 0 34 0 34 0 34 0 34 0 34 0 34 0 34 0 34 0 34 0 34 0 34 0  v1000 z" /> 
  </defs>
  <g >
   <use xlink:href="#wavepath" y="222" fill="#29B6F6">
   </use>
  </g>
</svg>